<svg xmlns="http://www.w3.org/2000/svg" width="179.829" height="42.46" viewBox="0 0 179.829 42.46">
    <defs>
        <style>
            .cls-1{fill:#200f8c}
        </style>
    </defs>
    <g id="Logo" transform="translate(-59.033 .471)">
        <g id="Group_1038">
            <path id="Path_78" d="M270.805 393.469a3.231 3.231 0 1 1 4.569 0 3.223 3.223 0 0 1-4.569 0zm6.674 1.438a2.989 2.989 0 0 1 4.227 4.227l-3.132 3.132c-.171.171-.359.342-.531.5l-4.963 4.929-.839-.839-4.107-4.107c-.188-.154-.359-.325-.531-.5l-3.132-3.132a2.989 2.989 0 0 1 4.227-4.227l3.132 3.132a1.787 1.787 0 0 0 2.533 0z" class="cls-1" transform="translate(-192.819 -388.421)"/>
            <path id="Path_79" d="M270.805 534.922a3.231 3.231 0 1 0 4.569 0 3.223 3.223 0 0 0-4.569 0zm6.674-1.438a2.989 2.989 0 0 0 4.227-4.227l-3.132-3.132c-.171-.171-.359-.342-.531-.5l-4.963-4.929-.839.839-4.107 4.107c-.188.154-.359.325-.531.5l-3.132 3.132a2.989 2.989 0 0 0 4.229 4.226l3.132-3.132a1.787 1.787 0 0 1 2.533 0z" class="cls-1" transform="translate(-192.819 -498.453)"/>
            <path id="Path_80" d="M341.922 463.8a3.231 3.231 0 1 1 0 4.569 3.223 3.223 0 0 1 0-4.569zm-1.438 6.674a2.989 2.989 0 1 1-4.227 4.227l-3.132-3.132c-.171-.171-.342-.359-.5-.531l-4.929-4.963.839-.839 4.107-4.107c.154-.188.325-.359.5-.531l3.132-3.132a2.989 2.989 0 0 1 4.226 4.234l-3.132 3.132a1.787 1.787 0 0 0 0 2.533z" class="cls-1" transform="translate(-245.948 -445.323)"/>
            <path id="Path_81" fill="#ffc21f" d="M200.469 463.888a3.231 3.231 0 1 0 0 4.569 3.223 3.223 0 0 0 0-4.569zm1.438 6.674a2.989 2.989 0 0 0 4.227 4.227l3.132-3.132c.171-.171.342-.359.5-.531l4.946-4.946-.839-.839-4.107-4.107c-.154-.188-.325-.359-.5-.531l-3.132-3.132a2.989 2.989 0 0 0-4.227 4.227l3.132 3.132a1.787 1.787 0 0 1 0 2.533z" transform="translate(-135.917 -445.406)"/>
        </g>
        <path id="Path_82" d="M899.493 457.776c-5.271 0-9.293-5.442-9.293-12.288s4.039-12.288 9.293-12.288a8.528 8.528 0 0 1 7.188 4.4l-3.508 2.259a4.735 4.735 0 0 0-3.679-2.464c-2.807 0-5.271 3.7-5.271 8.078 0 4.4 2.464 8.078 5.271 8.078a4.845 4.845 0 0 0 3.868-2.464l3.508 2.1a8.444 8.444 0 0 1-7.377 4.589z" class="cls-1" transform="translate(-712.182 -425.927)"/>
        <path id="Path_83" d="M536.371 438.2h-16.618a3.944 3.944 0 0 0-3.953 3.936h8.146v19.082h4.279v-19.082h4.193a3.825 3.825 0 0 0 1.506-.308 4.319 4.319 0 0 0 1.284-.856 4.111 4.111 0 0 0 .856-1.284 3.682 3.682 0 0 0 .308-1.489z" class="cls-1" transform="translate(-401.857 -430.072)"/>
        <path id="Path_84" d="M704.7 475.9l-3.611 10.457-3.864-10.457H693.1l6.024 15.522-2.858 7.77h1.2a4.094 4.094 0 0 0 2.259-.7 3.87 3.87 0 0 0 1.438-1.865l7.616-20.708H704.7z" class="cls-1" transform="translate(-548.814 -461.32)"/>
        <path id="Path_85" d="M791.1 474.257a8.2 8.2 0 0 0-3.337.548 7.806 7.806 0 0 0-2.807 1.883 9.43 9.43 0 0 0 0 12.288 8.055 8.055 0 0 0 2.824 1.865 10.761 10.761 0 0 0 6.674 0 8.166 8.166 0 0 0 2.824-1.848 8.745 8.745 0 0 0 2.328-6.161 8.543 8.543 0 0 0-2.276-6.127 8.087 8.087 0 0 0-2.841-1.883 7.993 7.993 0 0 0-3.389-.565zm3.029 12.219a3.736 3.736 0 0 1-1.352 1.061 3.812 3.812 0 0 1-1.677.377 4.005 4.005 0 0 1-1.677-.377 3.927 3.927 0 0 1-1.352-1.061 6.389 6.389 0 0 1 0-7.2 3.779 3.779 0 0 1 1.352-1.078 3.829 3.829 0 0 1 1.677-.394 3.931 3.931 0 0 1 3.029 1.472 5.675 5.675 0 0 1 1.112 3.594 5.756 5.756 0 0 1-1.112 3.56z" class="cls-1" transform="translate(-623.06 -459.951)"/>
        <path id="Path_86" d="M998.117 474.1a6 6 0 0 0-6.349 4.621l3.491.787a2.7 2.7 0 0 1 1.1-1.472 2.755 2.755 0 0 1 1.78-.445c1.934 0 2.875.839 2.875 2.447v.719h-2.79c-4.21 0-6.983 2.139-6.983 5.442a4.9 4.9 0 0 0 .274 1.985 4.693 4.693 0 0 0 2.755 2.755 4.59 4.59 0 0 0 1.985.274 6.271 6.271 0 0 0 2.841-.582 6.093 6.093 0 0 0 2.259-1.8s.445 2.105 3.782 2.105v-9.909c-.055-4.636-2.399-6.927-7.02-6.927zm2.875 10.2a3.008 3.008 0 0 1-1.181 2.55 4.2 4.2 0 0 1-2.67.941 1.78 1.78 0 0 1-.668-.068 1.54 1.54 0 0 1-.582-.342 1.5 1.5 0 0 1-.377-.548 1.42 1.42 0 0 1-.12-.65c0-1.42.941-2.139 2.824-2.139h2.721z" class="cls-1" transform="translate(-795.917 -459.809)"/>
        <path id="Path_87" d="M615.617 474.1a6 6 0 0 0-6.349 4.621l3.491.787a2.7 2.7 0 0 1 1.1-1.472 2.755 2.755 0 0 1 1.78-.445c1.934 0 2.875.839 2.875 2.447v.719h-2.794c-4.21 0-6.983 2.139-6.983 5.442a4.9 4.9 0 0 0 .274 1.985 4.485 4.485 0 0 0 1.078 1.677 4.706 4.706 0 0 0 1.677 1.078 4.59 4.59 0 0 0 1.985.274 6.271 6.271 0 0 0 2.841-.582 6.093 6.093 0 0 0 2.259-1.8s.462 2.105 3.8 2.105v-9.909c-.051-4.636-2.396-6.927-7.034-6.927zm2.892 10.2a3.007 3.007 0 0 1-1.181 2.55 4.2 4.2 0 0 1-2.67.941 1.78 1.78 0 0 1-.667-.068 1.54 1.54 0 0 1-.582-.342 1.5 1.5 0 0 1-.376-.548 1.419 1.419 0 0 1-.12-.65c0-1.42.941-2.139 2.824-2.139h2.721z" class="cls-1" transform="translate(-478.878 -459.809)"/>
        <path id="Path_88" d="M1089.954 482.213c-.377-.223-.787-.445-1.181-.633l-1.421-.5-1.181-.428c-1.044-.376-1.592-.924-1.592-1.609a1.342 1.342 0 0 1 .12-.565 1.127 1.127 0 0 1 .342-.462 1.313 1.313 0 0 1 .5-.291 1.285 1.285 0 0 1 .565-.068 3.5 3.5 0 0 1 1.557.394 3.758 3.758 0 0 1 1.215 1.044l2.43-2.242a6.1 6.1 0 0 0-2.276-2 6.327 6.327 0 0 0-2.961-.685 4.934 4.934 0 0 0-2.054.325 5.361 5.361 0 0 0-1.763 1.1 4.613 4.613 0 0 0-1.472 3.491 4.466 4.466 0 0 0 .924 2.721 4.6 4.6 0 0 0 2.379 1.626c.633.257 1.746.633 2.345.89a5.552 5.552 0 0 1 .924.394 1.311 1.311 0 0 1 .65.5 1.365 1.365 0 0 1 .24.77c0 1.181-.7 1.746-2.037 1.746a3.462 3.462 0 0 1-2.139-.787 3.552 3.552 0 0 1-1.2-1.934l-3.269 1.746a7.882 7.882 0 0 0 2.482 3.115 6.51 6.51 0 0 0 4.124 1.335 5.808 5.808 0 0 0 2.293-.359 5.645 5.645 0 0 0 1.951-1.232 5.429 5.429 0 0 0 1.232-1.8 5.077 5.077 0 0 0 .411-2.139 4.279 4.279 0 0 0-1.01-2.687 4.891 4.891 0 0 0-1.128-.776z" class="cls-1" transform="translate(-869.168 -459.88)"/>
        <path id="Path_89" d="M1170.161 434.68a5.916 5.916 0 0 0-5.254 2.944V426.5a4.1 4.1 0 0 0-1.575.308 3.885 3.885 0 0 0-1.335.89 4.148 4.148 0 0 0-.89 1.335 4.1 4.1 0 0 0-.308 1.574v20.93h4.022v-6.983c0-4.193 1.745-6.349 3.9-6.349 1.643 0 2.464.975 2.464 2.944v10.457h4.124v-11.911a4.527 4.527 0 0 0-.274-2.019 4.369 4.369 0 0 0-1.113-1.694 4.742 4.742 0 0 0-3.765-1.3z" class="cls-1" transform="translate(-936.471 -420.374)"/>
    </g>
</svg>
